HIERARCHY
ROOT Hips
{
	OFFSET 0.00000 0.00000 0.00000
	CHANNELS 6 Xposition Yposition Zposition Zrotation Yrotation Xrotation 
	JOINT LHipJoint
	{
		OFFSET 0 0 0
		CHANNELS 3 Zrotation Yrotation Xrotation
		JOINT LeftUpLeg
		{
			OFFSET 1.62964 -1.40469 0.78906
			CHANNELS 3 Zrotation Yrotation Xrotation
			JOINT LeftLeg
			{
				OFFSET 2.29640 -6.30932 0.00000
				CHANNELS 3 Zrotation Yrotation Xrotation
				JOINT LeftFoot
				{
					OFFSET 2.29451 -6.30412 0.00000
					CHANNELS 3 Zrotation Yrotation Xrotation
					JOINT LeftToeBase
					{
						OFFSET 0.03611 -0.09921 1.56387
						CHANNELS 3 Zrotation Yrotation Xrotation
						End Site
						{
							OFFSET 0.00000 -0.00000 0.80291
						}
					}
				}
			}
		}
	}
	JOINT RHipJoint
	{
		OFFSET 0 0 0
		CHANNELS 3 Zrotation Yrotation Xrotation
		JOINT RightUpLeg
		{
			OFFSET -1.73712 -1.40469 0.78906
			CHANNELS 3 Zrotation Yrotation Xrotation
			JOINT RightLeg
			{
				OFFSET -2.28137 -6.26801 0.00000
				CHANNELS 3 Zrotation Yrotation Xrotation
				JOINT RightFoot
				{
					OFFSET -2.28681 -6.28298 0.00000
					CHANNELS 3 Zrotation Yrotation Xrotation
					JOINT RightToeBase
					{
						OFFSET -0.15927 -0.43759 1.61103
						CHANNELS 3 Zrotation Yrotation Xrotation
						End Site
						{
							OFFSET -0.00000 -0.00000 0.84630
						}
					}
				}
			}
		}
	}
	JOINT LowerBack
	{
		OFFSET 0 0 0
		CHANNELS 3 Zrotation Yrotation Xrotation
		JOINT Spine
		{
			OFFSET -0.04227 2.04338 -0.00225
			CHANNELS 3 Zrotation Yrotation Xrotation
			JOINT Spine1
			{
				OFFSET -0.02148 2.04482 -0.04273
				CHANNELS 3 Zrotation Yrotation Xrotation
				JOINT Neck
				{
					OFFSET 0 0 0
					CHANNELS 3 Zrotation Yrotation Xrotation
					JOINT Neck1
					{
						OFFSET 0.09180 1.44629 0.19359
						CHANNELS 3 Zrotation Yrotation Xrotation
						JOINT Head
						{
							OFFSET 0.00887 1.40645 0.14750
							CHANNELS 3 Zrotation Yrotation Xrotation
							End Site
							{
								OFFSET -0.00669 1.50671 0.03707
							}
						}
					}
				}
				JOINT LeftShoulder
				{
					OFFSET 0 0 0
					CHANNELS 3 Zrotation Yrotation Xrotation
					JOINT LeftArm
					{
						OFFSET 2.17674 1.86763 -0.06520
						CHANNELS 3 Zrotation Yrotation Xrotation
						JOINT LeftForeArm
						{
							OFFSET 4.65776 -0.00000 0.00000
							CHANNELS 3 Zrotation Yrotation Xrotation
							JOINT LeftHand
							{
								OFFSET 3.55539 -0.00000 0.00000
								CHANNELS 3 Zrotation Yrotation Xrotation
								JOINT LeftFingerBase
								{
									OFFSET 0 0 0
									CHANNELS 3 Zrotation Yrotation Xrotation
									JOINT LeftHandIndex1
									{
										OFFSET 0.70726 -0.00000 0.00000
										CHANNELS 3 Zrotation Yrotation Xrotation
										End Site
										{
											OFFSET 0.57022 -0.00000 0.00000
										}
									}
								}
								JOINT LThumb
								{
									OFFSET 0 0 0
									CHANNELS 3 Zrotation Yrotation Xrotation
									End Site
									{
										OFFSET 0.57892 -0.00000 0.57892
									}
								}
							}
						}
					}
				}
				JOINT RightShoulder
				{
					OFFSET 0 0 0
					CHANNELS 3 Zrotation Yrotation Xrotation
					JOINT RightArm
					{
						OFFSET -2.80694 1.55459 -0.32496
						CHANNELS 3 Zrotation Yrotation Xrotation
						JOINT RightForeArm
						{
							OFFSET -4.71925 -0.00000 -0.00000
							CHANNELS 3 Zrotation Yrotation Xrotation
							JOINT RightHand
							{
								OFFSET -3.56990 -0.00000 0.00000
								CHANNELS 3 Zrotation Yrotation Xrotation
								JOINT RightFingerBase
								{
									OFFSET 0 0 0
									CHANNELS 3 Zrotation Yrotation Xrotation
									JOINT RightHandIndex1
									{
										OFFSET -0.50776 -0.00000 0.00000
										CHANNELS 3 Zrotation Yrotation Xrotation
										End Site
										{
											OFFSET -0.40937 -0.00000 0.00000
										}
									}
								}
								JOINT RThumb
								{
									OFFSET 0 0 0
									CHANNELS 3 Zrotation Yrotation Xrotation
									End Site
									{
										OFFSET -0.41562 -0.00000 0.41562
									}
								}
							}
						}
					}
				}
			}
		}
	}
}
MOTION
Frames: 5
Frame Time: .0083333
-7.4091 16.2257 35.6666 0 0 0 0 0 0 -21 0 0 0 0 0 0 0 0 0 0 0 0 0 0 21 0 0 0 0 0 0 0 0 0 0 0 0 0 0 0 0 0 0 0 0 0 0 -16 0 0 21 0 0 11 0 0 0 -8 0 0 0 0 0 0 0 0 0 0 0 0 0 0 0 0 0 0 0 0 8 0 0 0 0 0 0 0 0 0 0 0 0 0 0 0 0 0
-7.4091 16.2257 35.6666 -178.1220 3.2392 -154.0470 0.0000 0.0000 0.0000 -17.9303 -11.6099 -19.2247 0.1553 2.5390 6.9978 0.2391 4.0896 -11.6657 5.7929 -14.2246 -44.1448 0.0000 0.0000 0.0000 17.8011 19.2014 -18.5931 -0.1674 -2.6359 7.2666 -0.9924 2.1444 -18.2294 -2.1474 9.1666 -26.3178 -5.2406 -5.4842 -31.3140 1.7228 -4.8866 -1.1089 2.7455 -2.2809 15.7205 -9.9387 2.5485 6.7766 12.5242 3.3131 16.0200 5.6031 2.2066 3.2171 0.0000 0.0000 0.0000 -84.1589 -0.7863 17.2632 12.3692 -20.3561 -2.2291 -0.0000 -0.0000 12.3475 16.1342 -1.4663 -0.4241 -7.1250 0.0000 -0.0000 -8.0860 28.4174 3.2937 0.0000 0.0000 0.0000 92.8105 -2.2488 6.6357 -14.3300 23.2045 -2.9569 0.0000 -0.0000 -8.7398 -12.9442 -55.2735 10.6973 7.1250 -0.0000 -0.0000 75.6931 -76.5745 -61.9583
-7.4058 16.2246 35.6746 -178.1830 3.3301 -153.9180 0.0000 0.0000 0.0000 -17.9807 -11.4824 -19.5085 0.1595 2.5736 7.0938 0.2410 3.9713 -11.6053 5.8655 -14.2967 -44.4393 0.0000 0.0000 0.0000 17.6654 19.4518 -18.7648 -0.1701 -2.6567 7.3243 -0.9518 1.8637 -17.9046 -2.1706 9.2128 -26.4632 -5.2346 -5.4157 -31.3501 1.6435 -4.7695 -1.1740 2.7073 -2.2183 15.6388 -9.8842 2.5571 6.2615 12.7708 3.3043 15.9292 5.6779 2.2131 3.2646 -0.0000 -0.0000 0.0000 -84.0368 -0.8426 17.3798 12.3411 -20.3142 -2.2193 -0.0000 -0.0000 12.2161 15.9562 -1.3413 -0.3835 -7.1250 0.0000 -0.0000 -8.2327 28.5461 3.3292 -0.0000 -0.0000 0.0000 92.9618 -2.3271 6.5900 -14.4007 23.3046 -2.9848 0.0000 -0.0000 -8.9241 -13.0134 -55.2587 10.7533 7.1250 -0.0000 -0.0000 75.6215 -76.5986 -61.9162
-7.4085 16.2249 35.6692 -178.2110 3.3872 -154.0490 0.0000 0.0000 0.0000 -18.0682 -11.5368 -19.2417 0.1548 2.5354 6.9878 0.2364 4.1275 -11.6495 5.9613 -14.3907 -44.8261 0.0000 0.0000 0.0000 17.6767 19.2880 -18.6243 -0.1705 -2.6598 7.3329 -0.9936 2.1333 -18.2440 -2.2357 9.3408 -26.8672 -5.2119 -5.3736 -31.3357 1.6803 -4.7408 -1.1225 2.7464 -2.2122 15.6933 -9.6664 2.4740 6.2216 12.3374 3.1709 15.1136 5.4764 2.0896 3.0595 -0.0000 -0.0000 0.0000 -84.1609 -0.8957 17.3883 12.3240 -20.2887 -2.2133 -0.0000 -0.0000 12.2956 15.0997 -2.1204 -0.5720 -7.1250 0.0000 -0.0000 -8.8317 27.7478 3.7454 -0.0000 -0.0000 0.0000 92.8668 -2.3411 6.5998 -14.4390 23.3589 -3.0000 0.0000 -0.0000 -9.0785 -13.3206 -55.3956 11.0278 7.1250 -0.0000 -0.0000 76.1669 -76.7307 -62.5867
-7.4067 16.2206 35.6688 -178.2410 3.4678 -153.9420 0.0000 0.0000 0.0000 -18.1129 -11.5204 -19.3314 0.1535 2.5249 6.9587 0.2343 4.1508 -11.6320 6.0551 -14.4816 -45.2026 0.0000 0.0000 0.0000 17.6153 19.3341 -18.7493 -0.1741 -2.6877 7.4104 -1.0040 2.3178 -18.3019 -2.2069 9.2843 -26.6889 -5.2102 -5.3847 -31.3898 1.7702 -4.7514 -1.2171 2.8406 -2.2101 15.6161 -9.6458 2.3892 6.1287 11.9056 3.0206 14.2261 5.3108 1.9443 2.8399 0.0000 -0.0000 0.0000 -84.3503 -0.8696 17.2106 12.2972 -20.2488 -2.2041 -0.0000 -0.0000 12.5865 15.2911 -1.6882 -0.4615 -7.1250 0.0000 -0.0000 -8.7182 28.1900 3.6040 0.0000 -0.0000 0.0000 92.7334 -2.5264 6.4385 -14.4530 23.3787 -3.0055 0.0000 -0.0000 -9.0495 -13.3430 -55.2555 11.0283 7.1250 -0.0000 -0.0000 75.5677 -76.7220 -62.0007
